<svg width="58" height="44" xmlns="http://www.w3.org/2000/svg" xml:space="preserve" enable-background="new 17 10.986 360 76" version="1.1">
 <defs>
  <linearGradient y2="0.00001" x2="0.5" y1="1" x1="0.5" id="SVGID_1_">
   <stop stop-color="#54758B" offset="0"/>
   <stop stop-color="#57778E" offset="0.3567"/>
   <stop stop-color="#607F96" offset="0.6431"/>
   <stop stop-color="#6F8EA5" offset="0.9043"/>
   <stop stop-color="#7797AF" offset="1"/>
  </linearGradient>
 </defs>
 <g>
  <title>Layer 1</title>
  <g stroke="null" id="svg_16">
   <polygon stroke="null" id="svg_10" points="57.606502532958984,43.53609651327133 19.968503952026367,43.53609651327133 0.3934974670410156,18.085536897182465 17.493497848510742,0.46390342712402344 57.606502532958984,0.46390342712402344 " fill="url(#SVGID_1_)"/>
   <path stroke="#54758B" id="svg_11" d="m23.57751,11.57865l6.694,-1.82614l0,5.92382l4.92,0l0,5.07756l-4.92,0l0,7.66088c0,1.44148 0.211,2.45375 0.632,3.03985s1.112,0.87966 2.073,0.87966c0.886,0 1.578,-0.0739 2.082,-0.2227l0.045,5.21118c-1.079,0.41503 -2.571,0.62154 -4.479,0.62154c-2.065,0 -3.759,-0.61749 -5.072,-1.85853c-1.315,-1.23902 -1.975,-3.42553 -1.975,-6.55851l0,-8.77337l-2.925,0l0,-5.07756l2.925,0l0,-4.09768z" stroke-miterlimit="10" stroke-width="3" fill="#FFFFFF"/>
   <path stroke="#54758B" id="svg_12" d="m44.58751,37.45538l-6.871,0l0,-16.7025l-2.836,0l0,-5.07756l2.836,0l0,-0.80071c0,-1.82715 0.362,-3.51157 1.086,-5.05529c0.725,-1.54473 1.792,-2.69163 3.203,-3.44071c1.41,-0.75009 2.937,-1.12565 4.576,-1.12565c1.184,0 2.38,0.14779 3.591,0.44439l-0.222,5.30026c-0.664,-0.2065 -1.405,-0.31178 -2.215,-0.31178c-1.021,0 -1.807,0.3462 -2.36,1.03657c-0.555,0.68936 -0.832,1.63583 -0.832,2.83841l0,1.1135l4.39,0l0,5.07756l-4.346,0l0,16.70351z" stroke-miterlimit="10" stroke-width="3" fill="#FFFFFF"/>
   <path stroke="null" id="svg_13" d="m23.57751,11.57865l6.694,-1.82614l0,5.92382l4.92,0l0,5.07756l-4.92,0l0,7.66088c0,1.44148 0.211,2.45375 0.632,3.03985s1.112,0.87966 2.073,0.87966c0.886,0 1.578,-0.0739 2.082,-0.2227l0.045,5.21118c-1.079,0.41503 -2.571,0.62154 -4.479,0.62154c-2.065,0 -3.759,-0.61749 -5.072,-1.85853c-1.315,-1.23902 -1.975,-3.42553 -1.975,-6.55851l0,-8.77337l-2.925,0l0,-5.07756l2.925,0l0,-4.09768z" fill="#FFFFFF"/>
   <path stroke="null" id="svg_14" d="m44.58751,37.45538l-6.871,0l0,-16.7025l-2.836,0l0,-5.07756l2.836,0l0,-0.80071c0,-1.82715 0.362,-3.51157 1.086,-5.05529c0.725,-1.54473 1.792,-2.69163 3.203,-3.44071c1.41,-0.75009 2.937,-1.12565 4.576,-1.12565c1.184,0 2.38,0.14779 3.591,0.44439l-0.222,5.30026c-0.664,-0.2065 -1.405,-0.31178 -2.215,-0.31178c-1.021,0 -1.807,0.3462 -2.36,1.03657c-0.555,0.68936 -0.832,1.63583 -0.832,2.83841l0,1.1135l4.39,0l0,5.07756l-4.346,0l0,16.70351z" fill="#FFFFFF"/>
  </g>
 </g>
</svg>